<svg width="468" height="398" viewBox="0 0 468 398" fill="none" xmlns="http://www.w3.org/2000/svg">
<path d="M261.194 71.6712C252.266 70.7055 243.195 70.1521 234 70.0145C193.82 70.1927 152.169 79.9661 112.744 98.6935C83.4714 113.171 54.9565 133.61 30.1926 158.821C18.0305 171.691 2.50809 190.326 0 210.209C0.2964 227.432 18.7797 248.69 30.1926 261.596C53.4144 285.818 81.1867 305.672 112.744 321.724C113.817 322.245 114.893 322.759 115.972 323.267L86.6935 374.397L126.476 397.908L341.528 23.4953L303.235 0.0921631L261.194 71.6712ZM352 97.208L322.778 147.852C336.222 165.317 344.202 186.855 344.202 210.209C344.202 268.419 294.858 315.611 233.971 315.611C231.339 315.611 228.788 315.328 226.202 315.154L206.864 348.632C215.782 349.587 224.8 350.283 234 350.403C274.218 350.222 315.846 340.336 355.227 321.724C384.5 307.247 413.043 286.808 437.807 261.596C449.97 248.727 465.491 230.091 468 210.209C467.703 192.986 449.22 171.728 437.807 158.821C414.585 134.6 386.785 114.746 355.227 98.6927C354.162 98.1764 353.072 97.7119 352 97.208ZM233.972 104.806C236.642 104.806 239.29 104.913 241.912 105.092L219.261 144.311C187.47 150.756 163.617 177.804 163.617 210.18C163.617 218.314 165.115 226.1 167.873 233.317C167.876 233.325 167.87 233.338 167.873 233.346L145.164 272.679C131.689 255.198 123.741 233.59 123.741 210.208C123.741 151.999 173.085 104.806 233.972 104.806ZM299.87 187.5L248.825 275.936C280.445 269.369 304.126 242.444 304.126 210.18C304.126 202.196 302.533 194.604 299.87 187.5Z" fill="black"/>
</svg>
