<svg width="100" height="114" viewBox="0 0 100 114" fill="none" xmlns="http://www.w3.org/2000/svg">
<g clip-path="url(#clip0_69_3723)">
<path d="M64.2907 84.0261C64.5151 84.146 64.771 84.1941 65.0237 84.1637C65.2763 84.1334 65.5135 84.0261 65.7032 83.8564C65.8928 83.6867 66.0257 83.4628 66.0838 83.2151C66.142 82.9674 66.1225 82.7077 66.0282 82.4714C66.0535 82.3457 66.0716 82.2554 66.0969 82.1296C66.5824 81.6764 67.1922 81.3786 67.8481 81.2742C68.504 81.1699 69.1761 81.2638 69.7783 81.5439C70.3805 81.824 70.8853 82.2775 71.228 82.8464C71.5707 83.4153 71.7358 84.0735 71.7019 84.7368C71.5483 88.4775 71.733 92.5139 69.2468 95.5295C80.5942 86.2568 85.7682 70.4604 82.3029 56.253C80.6025 53.8836 79.8093 50.7359 80.5718 47.8835C81.5287 48.8142 83.394 48.5642 83.109 46.9531C82.9561 46.3164 82.7978 45.6816 82.6449 45.0448C89.1807 42.4945 90.887 52.2125 83.1451 56.1692C83.7732 58.8703 84.1171 61.6296 84.1714 64.4023C85.0454 61.9022 86.5004 59.6453 88.4168 57.8173C90.2722 56.1468 92.7256 55.1645 95.008 54.0437C97.7853 52.6762 100.868 55.3872 99.7742 58.2812C97.9254 58.0447 96.6171 60.2545 98.2949 61.4421C95.3481 66.391 89.6979 69.5365 83.9571 69.5865C83.3766 75.2334 81.5991 80.6917 78.7432 85.5977C82.4105 80.0212 89.5076 81.6268 95.1164 81.3892C95.4886 81.3423 95.8663 81.4047 96.2036 81.5688C96.5409 81.7329 96.8231 81.9916 97.0159 82.3133C97.2086 82.6351 97.3035 83.006 97.2891 83.3808C97.2747 83.7556 97.1514 84.1181 96.9345 84.4241C96.1966 84.3808 95.4563 84.4109 94.7244 84.5139C94.3802 84.565 94.0601 84.7212 93.8081 84.9612C93.5562 85.2013 93.3846 85.5134 93.317 85.8547C93.2493 86.1961 93.2889 86.55 93.4303 86.868C93.5717 87.186 93.808 87.4525 94.1068 87.6309C89.1866 92.1414 81.5626 93.111 75.579 90.2328C73.8099 92.4612 71.814 94.4997 69.6234 96.3155L60.7275 92.075C60.7427 91.961 60.7627 91.8452 60.7811 91.7327C61.5799 92.177 62.43 92.5218 63.3126 92.7594C62.3635 89.1416 61.306 87.0226 64.2904 84.0261H64.2907Z" fill="#F60FC0"/>
<path d="M48.5717 75.4679C48.409 75.6637 48.1902 75.8047 47.9447 75.8718C47.6993 75.939 47.4392 75.9291 47.1995 75.8435C46.9599 75.7579 46.7524 75.6007 46.6051 75.3932C46.4578 75.1857 46.3778 74.9379 46.3761 74.6835C46.3052 74.5765 46.2544 74.4998 46.1835 74.3929C45.5629 74.1563 44.8859 74.1104 44.239 74.2612C43.5922 74.4119 43.0052 74.7524 42.5532 75.239C42.1011 75.7255 41.8047 76.336 41.7019 76.9921C41.599 77.6483 41.6945 78.3202 41.976 78.9217C43.5293 82.3281 44.8807 86.136 48.3208 87.991C34.3139 83.6836 23.5637 71.0057 21.4139 56.5406C22.095 53.7049 21.6423 50.4905 19.8602 48.1365C19.325 49.3594 17.5031 49.8314 17.1594 48.2318C17.0609 47.5844 16.968 46.9368 16.8694 46.2895C9.85447 46.3928 11.9398 56.0366 20.6023 56.7808C21.0395 59.5192 21.7618 62.2045 22.7573 64.7928C21.0049 62.807 18.8061 61.2657 16.3417 60.2956C13.9932 59.4484 11.3505 59.464 8.81394 59.2869C5.72598 59.0681 3.89388 62.7415 5.99826 65.0093C7.62128 64.0928 9.66644 65.646 8.56057 67.3787C13.1564 70.8505 19.5757 71.6324 24.9113 69.5132C27.579 74.524 31.2841 78.9087 35.7796 82.375C30.2797 78.5937 24.3124 82.7577 19.0283 84.6534C18.666 84.7503 18.3397 84.9506 18.0892 85.2298C17.8388 85.509 17.675 85.855 17.6178 86.2257C17.5607 86.5964 17.6127 86.9757 17.7674 87.3174C17.9222 87.6591 18.173 87.9483 18.4894 88.1499C19.1564 87.8314 19.8534 87.5801 20.5701 87.3994C20.9081 87.3168 21.2635 87.3408 21.5874 87.468C21.9113 87.5953 22.1879 87.8196 22.3793 88.1103C22.5707 88.4009 22.6675 88.7436 22.6565 89.0915C22.6455 89.4393 22.5272 89.7752 22.3178 90.0532C28.5759 92.3746 36.0024 90.3967 40.4584 85.4741C42.9374 86.8706 45.5548 88.0057 48.2684 88.861L54.9077 81.5782C54.8506 81.4784 54.7884 81.3787 54.7289 81.2814C54.1568 81.9942 53.4995 82.6342 52.7718 83.1871C52.286 79.4786 52.4661 77.1172 48.5719 75.4678L48.5717 75.4679Z" fill="#F60FC0"/>
<path d="M50.2802 44.6942C50.5334 44.6686 50.7726 44.5658 50.9654 44.3998C51.1582 44.2337 51.2953 44.0124 51.3581 43.7658C51.4209 43.5192 51.4064 43.2592 51.3166 43.0212C51.2267 42.7831 51.0658 42.5784 50.8557 42.4348C50.8066 42.3163 50.7714 42.2313 50.7222 42.1128C50.8726 41.4659 51.2127 40.8786 51.699 40.4263C52.1853 39.974 52.7956 39.6772 53.4517 39.574C54.1078 39.4708 54.7797 39.5658 55.3814 39.847C55.9831 40.1281 56.4871 40.5826 56.8289 41.1521C58.7869 44.343 61.1908 47.5908 60.8082 51.4804C65.0582 37.4559 60.546 21.4579 49.7479 11.5958C47.0153 10.5769 44.6018 8.4062 43.6445 5.61317C44.9578 5.85223 46.3669 4.60467 45.232 3.42615C44.75 2.98284 44.2647 2.5441 43.7828 2.10076C47.7864 -3.6604 54.6213 3.45554 50.4004 11.0567C52.4278 12.9488 54.2518 15.0477 55.8427 17.3191C55.1744 14.7564 55.1239 12.0716 55.6956 9.48564C56.3045 7.06436 57.7934 4.881 59.0632 2.67801C60.6064 -0.00565033 64.6767 0.526238 65.3825 3.53841C63.7158 4.37285 63.8619 6.93676 65.9168 6.98716C66.2298 12.7384 63.2931 18.5 58.5553 21.7422C61.2218 26.7537 62.7896 32.2759 63.1541 37.9409C63.0893 31.2669 69.8761 28.6427 74.3997 25.3183C74.6825 25.0718 75.0309 24.913 75.4024 24.8612C75.7739 24.8094 76.1524 24.8668 76.4918 25.0264C76.8312 25.1861 77.1168 25.441 77.3138 25.7602C77.5108 26.0794 77.6106 26.449 77.6011 26.824C76.9644 27.1994 76.3667 27.6372 75.8165 28.1308C75.5592 28.3651 75.3806 28.6732 75.3053 29.013C75.2299 29.3528 75.2615 29.7075 75.3957 30.0286C75.5299 30.3497 75.7601 30.6214 76.0547 30.8066C76.3494 30.9917 76.6942 31.0812 77.0417 31.0627C75.4721 37.5503 69.6836 42.606 63.1116 43.5528C62.8855 46.3891 62.3652 49.1942 61.5591 51.9229L51.8099 53.3626C51.759 53.2594 51.711 53.1522 51.6636 53.0486C52.5744 52.972 53.4723 52.7843 54.3375 52.4895C51.5326 50.0153 49.4732 48.8458 50.2799 44.6944L50.2802 44.6942Z" fill="#F60FC0"/>
<path d="M60.0856 41.5682C55.6471 41.5682 53.2397 41.0259 52.399 39.8681C51.6571 38.8466 52.1544 37.4988 52.7303 35.9382C53.1443 34.8165 53.6133 33.5452 53.6133 32.2869C53.6133 26.167 56.7165 23.0638 62.8364 23.0638C65.8813 23.0638 69.1507 24.6814 71.5821 27.3908C73.7924 29.8539 74.8935 32.8018 74.6031 35.4786C74.3649 37.6739 73.3431 39.1176 71.3873 40.0223L71.2729 40.0752L71.2404 39.9534C71.0716 39.3233 70.7857 38.7306 70.3978 38.2062C70.3601 39.0294 70.1525 39.836 69.7883 40.5752L69.7674 40.6173L69.7223 40.6303C67.5088 41.2608 64.8818 41.4316 62.8404 41.5098C61.8469 41.5486 60.9286 41.568 60.0856 41.5682Z" fill="#2F2E41"/>
<path d="M61.2947 50.0951C61.1246 49.5951 60.8377 49.1428 60.4578 48.7758C60.0779 48.4089 59.6159 48.1378 59.1103 47.9851C58.6046 47.8325 58.0698 47.8026 57.5503 47.8979C57.0308 47.9933 56.5415 48.2112 56.1231 48.5335L41.5238 57.262L36.9555 46.1153C37.3414 45.5491 37.5381 44.8753 37.5174 44.1904C37.4967 43.5056 37.2596 42.8449 36.8402 42.3031C36.4207 41.7613 35.8405 41.3662 35.1827 41.1746C34.5248 40.983 33.8232 41.0046 33.1784 41.2364C32.5336 41.4681 31.9788 41.8982 31.5936 42.4647C31.2083 43.0313 31.0123 43.7054 31.0338 44.3902C31.0553 45.075 31.2931 45.7355 31.7132 46.2768C32.1332 46.8181 32.7139 47.2125 33.3719 47.4034C33.6535 50.6177 35.2183 64.9847 40.662 64.4624C45.2377 64.0235 56.601 56.4557 60.1305 53.8318C60.6951 53.4124 61.1121 52.8246 61.3213 52.1531C61.5306 51.4816 61.5212 50.761 61.2947 50.0951Z" fill="#FFB6B6"/>
<path d="M72.2969 113.492H59.5903L57.4594 102.957L56.7682 113.492H44.9648C44.9694 105.219 45.4004 96.9506 46.2561 88.7214L46.4024 88.2231L46.6335 87.4259L46.7798 86.9255L49.2223 78.5378L49.4152 77.8721H64.1234C64.9697 78.6671 65.7504 79.5294 66.4577 80.4503C66.6973 80.7556 66.9475 81.0864 67.2041 81.4426C67.3822 81.6949 67.5666 81.9599 67.7511 82.2377C69.3899 84.6775 70.6149 87.3711 71.3767 90.2098V90.2119C71.506 90.6974 71.6205 91.1943 71.7202 91.7024V91.7046C71.8092 92.1562 71.8877 92.6141 71.9492 93.0827C71.9958 93.4241 72.0361 93.7697 72.0658 94.1195C72.2425 96.0577 72.1806 98.0102 71.8813 99.9332L72.2969 113.492Z" fill="#2F2E41"/>
<path d="M4.92581 17.1571C5.75101 16.8377 6.23983 16.1134 6.01762 15.5393C5.7954 14.9653 4.9463 14.7589 4.1211 15.0783C3.29591 15.3978 2.80709 16.1221 3.02931 16.6961C3.25152 17.2702 4.10062 17.4766 4.92581 17.1571Z" fill="#F60FC0"/>
<path d="M15.3164 15.8243C16.1416 15.5049 16.6305 14.7806 16.4082 14.2065C16.186 13.6325 15.3369 13.4261 14.5117 13.7455C13.6865 14.0649 13.1977 14.7892 13.4199 15.3633C13.6421 15.9373 14.4912 16.1438 15.3164 15.8243Z" fill="#3F3D56"/>
<path d="M4.02543 26.0215C4.85063 25.7021 5.33945 24.9777 5.11723 24.4037C4.89502 23.8296 4.04592 23.6232 3.22072 23.9427C2.39552 24.2621 1.9067 24.9864 2.12892 25.5605C2.35113 26.1345 3.20023 26.3409 4.02543 26.0215Z" fill="#F60FC0"/>
<path d="M1.01911 29.9316C1.39768 29.842 1.60016 29.3282 1.47136 28.784C1.34255 28.2398 0.931229 27.8713 0.552655 27.9609C0.174082 28.0505 -0.0283929 28.5643 0.100415 29.1085C0.229222 29.6527 0.640536 30.0212 1.01911 29.9316Z" fill="#F60FC0"/>
<path d="M0.957586 36.5515C1.33616 36.4619 1.53863 35.9481 1.40983 35.4039C1.28102 34.8597 0.869706 34.4912 0.491132 34.5808C0.112558 34.6704 -0.0899163 35.1842 0.0388913 35.7284C0.167699 36.2726 0.579013 36.6411 0.957586 36.5515Z" fill="#3F3D56"/>
<path d="M10.0767 22.8401C10.4553 22.7505 10.6578 22.2367 10.529 21.6925C10.4002 21.1483 9.98885 20.7798 9.61027 20.8694C9.2317 20.959 9.02922 21.4728 9.15803 22.017C9.28684 22.5612 9.69815 22.9297 10.0767 22.8401Z" fill="#F60FC0"/>
<path d="M4.60407 21.5113C4.98264 21.4217 5.18512 20.9079 5.05631 20.3637C4.9275 19.8195 4.51619 19.4509 4.13762 19.5405C3.75904 19.6302 3.55657 20.144 3.68538 20.6882C3.81418 21.2324 4.2255 21.6009 4.60407 21.5113Z" fill="#F60FC0"/>
<path d="M10.4039 15.4154C10.7824 15.3258 10.9849 14.812 10.8561 14.2678C10.7273 13.7236 10.316 13.3551 9.93742 13.4447C9.55885 13.5343 9.35637 14.0481 9.48518 14.5923C9.61399 15.1365 10.0253 15.505 10.4039 15.4154Z" fill="#3F3D56"/>
<path d="M13.102 61.2333C13.501 60.7646 13.2782 59.9196 12.6044 59.3461C11.9306 58.7725 11.0609 58.6875 10.6619 59.1563C10.2629 59.625 10.4857 60.47 11.1595 61.0435C11.8333 61.6171 12.703 61.702 13.102 61.2333Z" fill="#F60FC0"/>
<path d="M6.98285 52.7313C7.38185 52.2626 7.15907 51.4177 6.48525 50.8441C5.81144 50.2706 4.94175 50.1856 4.54276 50.6543C4.14376 51.1231 4.36655 51.968 5.04036 52.5416C5.71418 53.1151 6.58386 53.2001 6.98285 52.7313Z" fill="#3F3D56"/>
<path d="M21.3256 57.805C21.7246 57.3362 21.5018 56.4913 20.828 55.9177C20.1542 55.3442 19.2845 55.2592 18.8855 55.7279C18.4865 56.1967 18.7093 57.0416 19.3831 57.6152C20.057 58.1887 20.9266 58.2737 21.3256 57.805Z" fill="#F60FC0"/>
<path d="M25.4113 57.8988C25.8285 57.5265 25.9568 56.9893 25.6977 56.6991C25.4387 56.4088 24.8904 56.4754 24.4732 56.8478C24.056 57.2202 23.9278 57.7573 24.1868 58.0476C24.4459 58.3378 24.9941 58.2712 25.4113 57.8988Z" fill="#F60FC0"/>
<path d="M31.2619 54.8012C31.6791 54.4288 31.8074 53.8916 31.5483 53.6014C31.2893 53.3111 30.741 53.3777 30.3238 53.7501C29.9066 54.1225 29.7784 54.6597 30.0374 54.9499C30.2965 55.2401 30.8447 55.1736 31.2619 54.8012Z" fill="#3F3D56"/>
<path d="M14.8625 53.3109C15.2797 52.9385 15.4079 52.4014 15.1489 52.1111C14.8898 51.8209 14.3416 51.8875 13.9244 52.2599C13.5072 52.6323 13.3789 53.1694 13.638 53.4597C13.8971 53.7499 14.4453 53.6833 14.8625 53.3109Z" fill="#F60FC0"/>
<path d="M16.3 58.7556C16.7172 58.3832 16.8454 57.846 16.5864 57.5558C16.3273 57.2656 15.7791 57.3322 15.3619 57.7045C14.9447 58.0769 14.8164 58.6141 15.0755 58.9043C15.3346 59.1946 15.8828 59.128 16.3 58.7556Z" fill="#F60FC0"/>
<path d="M8.17793 56.5578C8.59515 56.1854 8.72337 55.6482 8.46432 55.358C8.20526 55.0678 7.65704 55.1343 7.23982 55.5067C6.8226 55.8791 6.69438 56.4163 6.95343 56.7065C7.21248 56.9968 7.76071 56.9302 8.17793 56.5578Z" fill="#3F3D56"/>
<path d="M54.2102 6.70484C54.7626 6.43318 54.8938 5.56927 54.5033 4.77523C54.1128 3.98119 53.3484 3.55772 52.7961 3.82938C52.2437 4.10104 52.1125 4.96495 52.503 5.75899C52.8935 6.55303 53.6578 6.9765 54.2102 6.70484Z" fill="#F60FC0"/>
<path d="M56.4485 16.938C57.0009 16.6664 57.1321 15.8025 56.7416 15.0084C56.3511 14.2144 55.5867 13.7909 55.0343 14.0626C54.482 14.3342 54.3507 15.1981 54.7413 15.9922C55.1318 16.7862 55.8961 17.2097 56.4485 16.938Z" fill="#3F3D56"/>
<path d="M45.301 6.5839C45.8534 6.31224 45.9846 5.44833 45.5941 4.65429C45.2036 3.86025 44.4393 3.43678 43.8869 3.70843C43.3345 3.98009 43.2033 4.84401 43.5938 5.63805C43.9843 6.43209 44.7487 6.85556 45.301 6.5839Z" fill="#F60FC0"/>
<path d="M40.6184 3.33641C41.1492 3.16042 41.4802 2.7184 41.3578 2.34913C41.2354 1.97986 40.7058 1.82318 40.175 1.99917C39.6442 2.17517 39.3131 2.61719 39.4355 2.98646C39.558 3.35573 40.0875 3.5124 40.6184 3.33641Z" fill="#F60FC0"/>
<path d="M34.0187 3.85487C34.5496 3.67888 34.8806 3.23686 34.7582 2.86759C34.6358 2.49832 34.1062 2.34165 33.5754 2.51764C33.0446 2.69364 32.7135 3.13565 32.8359 3.50492C32.9584 3.87419 33.4879 4.03087 34.0187 3.85487Z" fill="#3F3D56"/>
<path d="M48.4758 11.7374C49.0066 11.5614 49.3377 11.1194 49.2152 10.7501C49.0928 10.3808 48.5632 10.2242 48.0324 10.4001C47.5016 10.5761 47.1705 11.0182 47.293 11.3874C47.4154 11.7567 47.945 11.9134 48.4758 11.7374Z" fill="#F60FC0"/>
<path d="M49.3205 6.16987C49.8513 5.99388 50.1824 5.55186 50.06 5.18259C49.9375 4.81332 49.408 4.65665 48.8772 4.83264C48.3463 5.00863 48.0153 5.45066 48.1377 5.81992C48.2601 6.18919 48.7897 6.34587 49.3205 6.16987Z" fill="#F60FC0"/>
<path d="M55.9006 11.4135C56.4314 11.2375 56.7625 10.7955 56.6401 10.4262C56.5176 10.0569 55.9881 9.90027 55.4572 10.0763C54.9264 10.2523 54.5953 10.6943 54.7178 11.0635C54.8402 11.4328 55.3698 11.5895 55.9006 11.4135Z" fill="#3F3D56"/>
<path d="M57.9392 43.272L64.9393 42.9114L68.1907 48.049C68.1907 48.049 74.3083 49.0718 73.8843 56.2806C73.4602 63.4894 66.441 69.8152 66.441 69.8152L66.741 73.5692L66.2199 75.0582L66.2868 75.8943L66.9977 76.7797L67.0708 77.6954L66.441 79.1443L67.2975 80.5315L49.2895 78.7868L48.631 76.3879L49.5916 75.0998L49.055 73.4196L49.8617 71.8035L50.2823 66.6702C50.2823 66.6702 45.6805 59.7566 50.9632 54.5494L53.0835 50.945L55.4558 48.0506L57.9392 43.272Z" fill="#020548"/>
<path d="M61.4185 41.8213C65.5151 41.8213 68.836 38.5004 68.836 34.4038C68.836 30.3072 65.5151 26.9863 61.4185 26.9863C57.3219 26.9863 54.001 30.3072 54.001 34.4038C54.001 38.5004 57.3219 41.8213 61.4185 41.8213Z" fill="#FFB6B6"/>
<path d="M60.4255 33.9542C59.7863 33.9542 59.1475 33.9362 58.509 33.9002L58.3949 33.8938L58.41 33.7805C58.504 33.0725 58.4511 32.3527 58.2545 31.6661C57.9205 32.4479 57.4237 33.1495 56.7972 33.7242L56.7618 33.7566L56.7142 33.7514C54.9801 33.5617 53.2619 33.2483 51.5725 32.8137L51.5078 32.7971L51.4949 32.7317C51.3687 32.1121 51.3034 31.4816 51.2998 30.8493C51.2998 28.8741 52.0159 27.2117 53.3163 26.1682C54.7316 25.0324 56.7606 24.6831 59.0312 25.1841H66.292C67.0903 25.185 67.8555 25.5025 68.42 26.0669C68.9844 26.6314 69.3019 27.3966 69.3028 28.1949V32.7928L69.2236 32.8135C66.3517 33.5683 63.3949 33.9516 60.4255 33.9542Z" fill="#2F2E41"/>
<path d="M9.81305 25.7035C9.48801 25.8224 9.22341 26.0653 9.07728 26.3791C8.93115 26.6928 8.91544 27.0517 9.03359 27.377L16.8665 48.8696C16.9853 49.1947 17.2283 49.4593 17.542 49.6054C17.8557 49.7516 18.2146 49.7673 18.5399 49.6491L48.9406 38.5698C49.2656 38.4509 49.5302 38.208 49.6764 37.8942C49.8225 37.5805 49.8382 37.2216 49.7201 36.8963L41.8872 15.4037C41.7683 15.0786 41.5254 14.814 41.2116 14.6679C40.8979 14.5217 40.539 14.506 40.2137 14.6241L9.81305 25.7035Z" fill="#F60FC0"/>
<path d="M37.6256 41.5084L19.0173 48.2901C18.6672 48.4173 18.2809 48.4003 17.9433 48.2431C17.6056 48.0858 17.3441 47.801 17.2162 47.4511L10.1118 27.9575C9.98468 27.6074 10.0016 27.2211 10.1589 26.8835C10.3161 26.5458 10.6009 26.2843 10.9508 26.1564L39.6336 15.7031C39.9837 15.5759 40.37 15.5928 40.7076 15.7501C41.0453 15.9074 41.3068 16.1922 41.4347 16.5421L44.8675 25.9612C45.965 28.9834 45.819 32.3176 44.4613 35.2322C43.1037 38.1469 40.6454 40.404 37.6256 41.5084Z" fill="white"/>
<path d="M24.2363 27.4259L19.8143 29.0374C19.7588 29.0576 19.6999 29.0667 19.641 29.0642C19.582 29.0616 19.5241 29.0475 19.4706 29.0226C19.4171 28.9976 19.369 28.9624 19.3291 28.9189C19.2893 28.8754 19.2583 28.8245 19.2381 28.769C19.2179 28.7136 19.2088 28.6547 19.2114 28.5957C19.2139 28.5368 19.228 28.4789 19.253 28.4254C19.2779 28.3719 19.3131 28.3238 19.3566 28.2839C19.4001 28.244 19.451 28.2131 19.5065 28.1929L23.9285 26.5813C24.0405 26.5405 24.1641 26.5458 24.2721 26.5962C24.3802 26.6465 24.4638 26.7377 24.5046 26.8497C24.5455 26.9617 24.5401 27.0853 24.4898 27.1934C24.4395 27.3014 24.3483 27.3851 24.2363 27.4259Z" fill="#020548"/>
<path d="M34.7783 25.5404L20.4437 30.7646C20.3882 30.7849 20.3293 30.794 20.2703 30.7915C20.2113 30.789 20.1533 30.7749 20.0998 30.75C20.0462 30.7251 19.9981 30.6899 19.9581 30.6464C19.9182 30.6029 19.8872 30.5519 19.867 30.4964C19.8468 30.4409 19.8377 30.382 19.8403 30.3229C19.8428 30.2639 19.857 30.206 19.882 30.1525C19.907 30.0989 19.9422 30.0509 19.9858 30.011C20.0294 29.9711 20.0804 29.9402 20.1359 29.92L34.4705 24.6959C34.526 24.6757 34.5849 24.6666 34.6438 24.6691C34.7028 24.6717 34.7607 24.6858 34.8142 24.7107C34.8677 24.7357 34.9158 24.7709 34.9556 24.8144C34.9955 24.8579 35.0265 24.9088 35.0467 24.9643C35.0669 25.0197 35.076 25.0786 35.0734 25.1376C35.0709 25.1965 35.0568 25.2544 35.0318 25.3079C35.0069 25.3614 34.9717 25.4095 34.9282 25.4494C34.8847 25.4893 34.8338 25.5202 34.7783 25.5404Z" fill="#020548"/>
<path d="M35.5004 27.5229L21.1659 32.7471C21.1104 32.7673 21.0515 32.7764 20.9925 32.7738C20.9336 32.7713 20.8757 32.7572 20.8222 32.7322C20.7687 32.7073 20.7206 32.6721 20.6807 32.6286C20.6408 32.5851 20.6099 32.5342 20.5897 32.4787C20.5695 32.4233 20.5604 32.3644 20.5629 32.3054C20.5655 32.2464 20.5796 32.1885 20.6045 32.135C20.6295 32.0815 20.6647 32.0335 20.7082 31.9936C20.7517 31.9537 20.8026 31.9227 20.8581 31.9025L35.1926 26.6784C35.3046 26.6377 35.4281 26.6432 35.5361 26.6935C35.644 26.7439 35.7275 26.835 35.7683 26.9469C35.8091 27.0589 35.8038 27.1824 35.7536 27.2904C35.7033 27.3984 35.6123 27.482 35.5004 27.5229Z" fill="#020548"/>
<path d="M36.2226 29.5055L21.888 34.7296C21.8326 34.7499 21.7736 34.7591 21.7146 34.7566C21.6556 34.7541 21.5977 34.74 21.5441 34.7151C21.4905 34.6902 21.4424 34.6549 21.4025 34.6114C21.3625 34.5679 21.3316 34.5169 21.3113 34.4614C21.2911 34.4059 21.282 34.347 21.2846 34.288C21.2872 34.229 21.3014 34.171 21.3263 34.1175C21.3513 34.064 21.3866 34.0159 21.4302 33.976C21.4737 33.9361 21.5247 33.9052 21.5802 33.8851L35.9148 28.6609C35.9703 28.6407 36.0292 28.6316 36.0882 28.6341C36.1471 28.6367 36.205 28.6508 36.2585 28.6758C36.312 28.7007 36.3601 28.7359 36.4 28.7794C36.4399 28.8229 36.4708 28.8738 36.491 28.9293C36.5112 28.9847 36.5203 29.0436 36.5178 29.1026C36.5152 29.1616 36.5011 29.2195 36.4762 29.273C36.4512 29.3265 36.416 29.3745 36.3725 29.4144C36.329 29.4543 36.2781 29.4853 36.2226 29.5055Z" fill="#020548"/>
<path d="M36.9458 31.488L22.6112 36.7121C22.4992 36.7529 22.3755 36.7476 22.2675 36.6973C22.1594 36.6469 22.0758 36.5557 22.035 36.4437C21.9942 36.3318 21.9995 36.2081 22.0498 36.1001C22.1002 35.992 22.1914 35.9084 22.3034 35.8676L36.638 30.6434C36.6934 30.6232 36.7523 30.6141 36.8113 30.6167C36.8702 30.6192 36.9281 30.6334 36.9816 30.6583C37.0351 30.6832 37.0832 30.7184 37.1231 30.7619C37.163 30.8054 37.1939 30.8563 37.2141 30.9118C37.2344 30.9673 37.2434 31.0261 37.2409 31.0851C37.2383 31.1441 37.2242 31.202 37.1993 31.2555C37.1744 31.309 37.1391 31.357 37.0956 31.3969C37.0521 31.4368 37.0012 31.4678 36.9458 31.488Z" fill="#020548"/>
<path d="M82.4291 36.9939L74.5808 55.775C74.2459 56.5697 73.612 57.2009 72.8159 57.5323C72.0197 57.8638 71.1252 57.869 70.3253 57.5467C69.9115 57.38 69.536 57.1307 69.2216 56.8141C68.9073 56.4976 68.6607 56.1203 68.497 55.7053C68.3332 55.2903 68.2556 54.8463 68.2691 54.4004C68.2825 53.9545 68.3866 53.5159 68.575 53.1116L77.3256 33.8525L82.1494 21.9259C81.7326 21.5101 81.4538 20.9761 81.3511 20.3965C81.2483 19.8168 81.3264 19.2195 81.5749 18.6858C81.8234 18.1521 82.2301 17.7078 82.7399 17.4133C83.2497 17.1188 83.8377 16.9884 84.4242 17.0397C85.0107 17.0911 85.5671 17.3218 86.018 17.7004C86.4688 18.079 86.7921 18.5872 86.944 19.156C87.096 19.7248 87.0691 20.3266 86.8671 20.8796C86.6651 21.4326 86.2978 21.91 85.815 22.2469L82.4291 36.9939Z" fill="#FFB6B6"/>
</g>
<defs>
<clipPath id="clip0_69_3723">
<rect width="100" height="113.492" fill="white"/>
</clipPath>
</defs>
</svg>
